 <!DOCTYPE svg PUBLIC "-//W3C//DTD SVG 1.1//EN" "http://www.w3.org/Graphics/SVG/1.1/DTD/svg11.dtd">
<svg xmlns="http://www.w3.org/2000/svg" width="865.76" height="682.89" viewBox="0 0 865.76 682.89">
  <defs>
<style xmlns="http://www.w3.org/1999/xhtml">*, ::after, ::before { box-sizing: border-box; }
img, svg { vertical-align: middle; }
</style>
<style xmlns="http://www.w3.org/1999/xhtml">*, body, html { -webkit-font-smoothing: antialiased; }
img, svg { max-width: 100%; }
</style>
</defs>
<rect x="578.88" y="70.8" width="227.46" height="471.18" rx="7.06" fill="#f2f2f2"/>
  <path d="M799.29,542.47H585.94a7.57,7.57,0,0,1-7.56-7.56v-457a7.57,7.57,0,0,1,7.56-7.56H799.29a7.56,7.56,0,0,1,7.55,7.56V534.91A7.56,7.56,0,0,1,799.29,542.47ZM585.94,71.3a6.56,6.56,0,0,0-6.56,6.56V534.91a6.56,6.56,0,0,0,6.56,6.56H799.29a6.56,6.56,0,0,0,6.55-6.56v-457a6.56,6.56,0,0,0-6.55-6.56Z" fill="#2f2e41" data-secondary="true"/>
  <rect x="154.74" y="70.8" width="227.46" height="471.18" rx="7.06" fill="#f2f2f2"/>
  <path d="M375.14,542.47H161.8a7.57,7.57,0,0,1-7.56-7.56v-457a7.57,7.57,0,0,1,7.56-7.56H375.14a7.57,7.57,0,0,1,7.56,7.56V534.91A7.57,7.57,0,0,1,375.14,542.47ZM161.8,71.3a6.56,6.56,0,0,0-6.56,6.56V534.91a6.56,6.56,0,0,0,6.56,6.56H375.14a6.56,6.56,0,0,0,6.56-6.56v-457a6.56,6.56,0,0,0-6.56-6.56Z" fill="#2f2e41" data-secondary="true"/>
  <path d="M350.14,186.25a83.37,83.37,0,0,1-82.31,83.37h-1.07A83.41,83.41,0,0,1,197.7,233l0,0a83.38,83.38,0,1,1,152.46-46.7Z" fill="#fff"/>
  <path d="M266.76,270.13a83.79,83.79,0,0,1-61.71-27.06,85.43,85.43,0,0,1-7.77-9.81,83.89,83.89,0,1,1,70.55,36.86h-1.07Zm0-166.77a82.89,82.89,0,0,0-11.67,165,84,84,0,0,0,11.67.82h1.07A83,83,0,0,0,342.47,220a82.95,82.95,0,0,0-75.71-116.68Z" fill="#2f2e41" data-secondary="true"/>
  <rect x="172.05" y="296.98" width="192.83" height="229.17" fill="#fff"/>
  <path d="M365.38,526.65H171.55V296.48H365.38Zm-192.83-1H364.38V297.48H172.55Z" fill="#2f2e41" data-secondary="true"/>
  <rect x="183.03" y="318.69" width="165.4" height="1" fill="#2f2e41" data-secondary="true"/>
  <rect x="183.03" y="339.6" width="165.4" height="1" fill="#2f2e41" data-secondary="true"/>
  <rect x="183.03" y="363.41" width="165.4" height="1" fill="#2f2e41" data-secondary="true"/>
  <rect x="183.03" y="384.32" width="165.4" height="1" fill="#2f2e41" data-secondary="true"/>
  <rect x="183.03" y="404.93" width="165.4" height="1" fill="#2f2e41" data-secondary="true"/>
  <rect x="183.03" y="425.84" width="165.4" height="1" fill="#2f2e41" data-secondary="true"/>
  <rect x="183.03" y="446.46" width="165.4" height="1" fill="#2f2e41" data-secondary="true"/>
  <rect x="183.03" y="467.36" width="165.4" height="1" fill="#2f2e41" data-secondary="true"/>
  <rect x="183.03" y="488.12" width="165.4" height="1" fill="#2f2e41" data-secondary="true"/>
  <rect x="230.84" y="511.28" width="117.58" height="1" fill="#2f2e41" data-secondary="true"/>
  <path d="M290.07,189.27a33.78,33.78,0,1,0-46-.26c-21.18,8.71-36.59,29.23-38.61,53.72a83.38,83.38,0,0,0,61.34,26.9h1.07a83.14,83.14,0,0,0,60.27-26.89C326.09,218.47,311,198.11,290.07,189.27Z" fill="#f2f2f2"/>
  <path d="M266.76,270.13a83.79,83.79,0,0,1-61.71-27.06l-.15-.16,0-.22c2-23.72,16.93-44.77,38.22-53.85a33.89,33.89,0,0,1-10.23-24.41A34.28,34.28,0,1,1,291,189.11c21.27,9.32,35.66,29.78,37.62,53.58l0,.22-.15.16a84.19,84.19,0,0,1-60.63,27.05h-1.07Zm-60.82-27.58a82.87,82.87,0,0,0,49.15,25.76,84,84,0,0,0,11.67.82h1.07a83.14,83.14,0,0,0,59.75-26.57c-2-23.59-16.46-43.82-37.7-52.82l-.72-.3.58-.53a33.28,33.28,0,1,0-55.83-24.47,33,33,0,0,0,10.46,24.22l.57.53-.72.29C223,198.21,208,219,205.94,242.55Z" fill="#2f2e41" data-secondary="true"/>
  <path d="M774.29,186.25A83.39,83.39,0,0,1,692,269.62H690.9a83.38,83.38,0,0,1-61.34-26.9,85.65,85.65,0,0,1-7.72-9.75v0a83.38,83.38,0,1,1,152.46-46.7Z" fill="#fff"/>
  <path d="M690.9,270.13a83.93,83.93,0,0,1-69.47-36.87A83.89,83.89,0,1,1,692,270.12H690.9Zm0-166.77a82.89,82.89,0,0,0-11.67,165,84.14,84.14,0,0,0,11.67.82c.31,0,.59,0,.89,0H692a83.16,83.16,0,0,0,59.9-26.73,82.88,82.88,0,0,0-61-139Z" fill="#2f2e41" data-secondary="true"/>
  <rect x="596.2" y="296.98" width="192.83" height="229.17" fill="#fff"/>
  <path d="M789.53,526.65H595.7V296.48H789.53Zm-192.83-1H788.53V297.48H596.7Z" fill="#2f2e41" data-secondary="true"/>
  <rect x="607.17" y="318.69" width="165.4" height="1" fill="#2f2e41" data-secondary="true"/>
  <rect x="607.17" y="339.6" width="165.4" height="1" fill="#2f2e41" data-secondary="true"/>
  <rect x="607.17" y="363.41" width="165.4" height="1" fill="#2f2e41" data-secondary="true"/>
  <rect x="607.17" y="384.32" width="165.4" height="1" fill="#2f2e41" data-secondary="true"/>
  <rect x="607.17" y="404.93" width="165.4" height="1" fill="#2f2e41" data-secondary="true"/>
  <rect x="607.17" y="425.84" width="165.4" height="1" fill="#2f2e41" data-secondary="true"/>
  <rect x="607.17" y="446.46" width="165.4" height="1" fill="#2f2e41" data-secondary="true"/>
  <rect x="607.17" y="467.36" width="165.4" height="1" fill="#2f2e41" data-secondary="true"/>
  <rect x="607.17" y="488.12" width="165.4" height="1" fill="#2f2e41" data-secondary="true"/>
  <rect x="654.99" y="511.28" width="117.58" height="1" fill="#2f2e41" data-secondary="true"/>
  <path d="M714.22,189.27a33.78,33.78,0,1,0-46.05-.26c-21.18,8.71-36.58,29.23-38.61,53.72a83.38,83.38,0,0,0,61.34,26.9H692a83.14,83.14,0,0,0,60.27-26.89C750.24,218.47,735.09,198.11,714.22,189.27Z" fill="#f2f2f2"/>
  <path d="M690.9,270.13a83.76,83.76,0,0,1-61.7-27.06l-.15-.16,0-.22C631,219,646,197.92,667.28,188.84a33.93,33.93,0,0,1-10.23-24.41,34.28,34.28,0,1,1,58.07,24.68c21.26,9.32,35.65,29.78,37.62,53.58l0,.22-.15.16A84.23,84.23,0,0,1,692,270.12H690.9Zm-60.82-27.58a82.87,82.87,0,0,0,49.15,25.76,84.14,84.14,0,0,0,11.67.82H692a83.14,83.14,0,0,0,59.75-26.57c-2-23.59-16.45-43.82-37.7-52.82l-.71-.3.57-.53a33.28,33.28,0,1,0-55.83-24.47,33,33,0,0,0,10.47,24.22l.56.53-.72.29C647.11,198.21,632.11,219,630.08,242.55Z" fill="#2f2e41" data-secondary="true"/>
  <rect x="357.4" y="53.69" width="252.26" height="507.09" rx="9.93" fill="#f2f2f2"/>
  <path d="M599.74,561.29H367.33a10.44,10.44,0,0,1-10.43-10.43V63.62a10.44,10.44,0,0,1,10.43-10.43H599.74a10.43,10.43,0,0,1,10.42,10.43V550.86A10.43,10.43,0,0,1,599.74,561.29ZM367.33,54.19a9.44,9.44,0,0,0-9.43,9.43V550.86a9.44,9.44,0,0,0,9.43,9.43H599.74a9.43,9.43,0,0,0,9.42-9.43V63.62a9.43,9.43,0,0,0-9.42-9.43Z" fill="#2f2e41" data-secondary="true"/>
  <path d="M572,178.54a88,88,0,0,1-86.95,88.07H484a89,89,0,0,1-12.4-.87A88,88,0,0,1,411,227.91l0,0a88.08,88.08,0,1,1,161-49.34Z" fill="#fff"/>
  <path d="M484,267.12a88.95,88.95,0,1,1,1.14,0H484ZM484,91a87.58,87.58,0,1,0,0,175.16h1.13A87.88,87.88,0,0,0,564,214.25,87.64,87.64,0,0,0,484,91Z" fill="#2f2e41" data-secondary="true"/>
  <ellipse cx="512.14" cy="162.26" rx="17.33" ry="17.25" transform="translate(217.56 611.52) rotate(-74.33)" fill="#2f2e41" data-secondary="true"/>
  <path d="M496,168.28l1.41,20.86-15.69,12-12.85-9.57v-9.7S485.79,183.67,496,168.28Z" fill="#dd9262"/>
  <path d="M481.72,201.72l-13.36-9.94v-10.5l.55.06c.17,0,16.76,1.61,26.66-13.34l.82-1.23,1.52,22.6Zm-12.36-10.44,12.35,9.19,15.17-11.57-1.29-19.16c-9.25,12.72-23.28,12.77-26.23,12.63Z" fill="#2f2e41" data-secondary="true"/>
  <path d="M512.14,192.76c-4.31,24.47-27.08,73.72-27.08,73.72l-.15.13h-1a89,89,0,0,1-12.4-.87c-8.12-20.54-14.78-66.68-14.78-66.68l12.08-7.54,12.85,9.56,15.69-12Z" fill="#f2f2f2"/>
  <path d="M484,267.12a88.2,88.2,0,0,1-12.47-.88l-.29,0-.1-.27c-8.06-20.36-14.75-66.33-14.82-66.79l0-.33,12.65-7.88,12.83,9.54,15.57-11.88,15.43,3.79-.08.46c-4.27,24.26-26.89,73.35-27.12,73.85l-.11.15-.29.27H484Zm-12-1.83a88.25,88.25,0,0,0,12,.83,5.6,5.6,0,0,0,.71,0c1.37-3,22.56-49.37,26.89-73l-14.05-3.45-15.79,12-12.89-9.58-11.51,7.18C457.93,203.45,464.31,245.82,471.92,265.29Z" fill="#2f2e41" data-secondary="true"/>
  <path d="M471.56,265.75a87.21,87.21,0,0,1-23.12-6.59.51.51,0,0,0-.15-.07c-.35-.15-.69-.3-1-.46-.59-.26-1.17-.53-1.75-.82l-.12-.06A88.38,88.38,0,0,1,411,227.91l0,0,7.61-8.59A48.5,48.5,0,0,1,438.08,206l18.29-6.75.41-.15C464.65,250.37,471.56,265.75,471.56,265.75Z" fill="#50C878" data-primary="true"/>
  <path d="M472.39,266.37l-.9-.13a86.81,86.81,0,0,1-23.25-6.63l-.15-.06-1-.46c-.59-.27-1.17-.54-1.76-.83l.11-.5-.19.46a89,89,0,0,1-34.62-30l-.22-.32.24-.32,7.61-8.59a49.11,49.11,0,0,1,19.68-13.46l19.27-7.12.09.61C465,249.59,472,265.39,472,265.54Zm-26.78-9.07.16.08c.55.26,1.12.54,1.7.8l1,.45.19.08a86.29,86.29,0,0,0,22.1,6.42c-1.47-3.8-7.61-21.36-14.39-65.38l-18.12,6.69A48,48,0,0,0,419,219.62l-7.36,8.3A88,88,0,0,0,445.61,257.3Z" fill="#2f2e41" data-secondary="true"/>
  <path d="M471.56,265.75a101.94,101.94,0,0,1-23.12-6.59.51.51,0,0,0-.15-.07c-.38-.16-.72-.32-1-.46-.92-.41-1.51-.7-1.75-.82l-.12-.06,9.06-23.3-11.55-3.69,9.41-30,4.05-1.56.41-.15C464.65,250.37,471.56,265.75,471.56,265.75Z" fill="#fff"/>
  <path d="M472.4,266.39l-.92-.15a102.72,102.72,0,0,1-23.24-6.62l-.15-.07-1-.46c-.92-.41-1.52-.71-1.76-.83l-.47-.18.11-.51,8.86-22.8-11.51-3.69,9.63-30.68,5.26-2,.09.61C465,249.59,472,265.39,472,265.54ZM446,257.51c.3.15.78.38,1.43.67l1,.45.19.08a101,101,0,0,0,22.09,6.4c-1.48-3.85-7.61-21.42-14.38-65.36l-3.65,1.41-9.19,29.27,11.58,3.71Z" fill="#2f2e41" data-secondary="true"/>
  <path d="M564.41,214.46a88.06,88.06,0,0,1-79.32,52.15l0-.13s18.48-38.13,27.08-73.72l30.14,5.82a10.59,10.59,0,0,1,4.53,2.07Z" fill="#50C878" data-primary="true"/>
  <path d="M484.7,267.12l-.17-.7.08-.16c.18-.38,18.56-38.49,27-73.62l.11-.47,30.62,5.92a11.14,11.14,0,0,1,4.74,2.16L565,214.31l-.16.35a88.87,88.87,0,0,1-79.77,52.45Zm27.81-73.78c-8,32.7-24.36,67.8-26.72,72.76a87.89,87.89,0,0,0,78-51.49L546.5,201a10,10,0,0,0-4.31-2Z" fill="#2f2e41" data-secondary="true"/>
  <path d="M519.24,227.88H507.55L517,260.22s-15.35,6.38-31.87,6.39l0-.13s22.77-49.25,27.08-73.72l9.05,1.75A318.71,318.71,0,0,1,519.24,227.88Z" fill="#fff"/>
  <path d="M484.7,267.11l-.17-.68.07-.16c.23-.5,22.8-49.47,27-73.6l.08-.5,10,1.93v.41a325,325,0,0,1-2,33.44l0,.43H508.21l9.36,32.13-.42.18c-.15.06-15.63,6.41-32.06,6.42Zm27.84-73.77c-4.22,23-24.22,67.2-26.77,72.77,14.49-.16,28.06-5.2,30.58-6.18l-9.47-32.55H518.8a321.67,321.67,0,0,0,1.89-32.46Z" fill="#2f2e41" data-secondary="true"/>
  <polygon points="481.71 201.09 471.56 213.21 460.31 196.86 468.86 191.53 481.71 201.09" fill="#50C878" data-primary="true"/>
  <path d="M471.52,214,459.6,196.72l9.28-5.79L482.44,201ZM461,197l10.58,15.37,9.39-11.2-12.16-9Z" fill="#2f2e41" data-secondary="true"/>
  <polygon points="491.23 209.83 481.71 201.09 497.39 189.14 506.06 191.26 491.23 209.83" fill="#50C878" data-primary="true"/>
  <path d="M491.29,210.56l-10.36-9.5,16.35-12.47,9.66,2.37Zm-8.8-9.43,8.68,8,14-17.54-7.67-1.88Z" fill="#2f2e41" data-secondary="true"/>
  <rect x="529.75" y="241.95" width="1" height="10.55" transform="matrix(0.86, -0.51, 0.51, 0.86, -52.05, 303.9)" fill="#2f2e41" data-secondary="true"/>
  <rect x="386.48" y="17.78" width="192.4" height="49.6" rx="7.08" fill="#50C878" data-primary="true"/>
  <path d="M571.8,67.88H393.56A7.59,7.59,0,0,1,386,60.3V24.86a7.59,7.59,0,0,1,7.58-7.58H571.8a7.59,7.59,0,0,1,7.58,7.58V60.3A7.59,7.59,0,0,1,571.8,67.88ZM393.56,18.28A6.59,6.59,0,0,0,387,24.86V60.3a6.59,6.59,0,0,0,6.58,6.58H571.8a6.59,6.59,0,0,0,6.58-6.58V24.86a6.59,6.59,0,0,0-6.58-6.58Z" fill="#2f2e41" data-secondary="true"/>
  <rect x="379.64" y="296.55" width="210.36" height="245.42" fill="#fff"/>
  <path d="M590.5,542.47H379.14V296.05H590.5Zm-210.36-1H589.5V297.05H380.14Z" fill="#2f2e41" data-secondary="true"/>
  <rect x="391.61" y="319.84" width="180.43" height="1" fill="#2f2e41" data-secondary="true"/>
  <rect x="391.61" y="342.23" width="180.43" height="1" fill="#2f2e41" data-secondary="true"/>
  <rect x="391.61" y="367.73" width="180.43" height="1" fill="#2f2e41" data-secondary="true"/>
  <rect x="391.61" y="390.12" width="180.43" height="1" fill="#2f2e41" data-secondary="true"/>
  <rect x="391.61" y="412.19" width="180.43" height="1" fill="#2f2e41" data-secondary="true"/>
  <rect x="391.61" y="434.58" width="180.43" height="1" fill="#2f2e41" data-secondary="true"/>
  <rect x="391.61" y="456.66" width="180.43" height="1" fill="#2f2e41" data-secondary="true"/>
  <rect x="391.61" y="479.05" width="180.43" height="1" fill="#2f2e41" data-secondary="true"/>
  <rect x="391.61" y="501.28" width="180.43" height="1" fill="#2f2e41" data-secondary="true"/>
  <rect x="443.77" y="526.08" width="128.27" height="1" fill="#2f2e41" data-secondary="true"/>
  <circle cx="587.43" cy="298.26" r="41.9" fill="#50C878" data-primary="true"/>
  <path d="M587.43,340.66a42.4,42.4,0,1,1,42.4-42.4A42.45,42.45,0,0,1,587.43,340.66Zm0-83.8a41.4,41.4,0,1,0,41.4,41.4A41.44,41.44,0,0,0,587.43,256.86Z" fill="#2f2e41" data-secondary="true"/>
  <path d="M580.87,316.51a2,2,0,0,1-1.23-.43l-15.82-12.4a2,2,0,1,1,2.46-3.14l14.35,11.24,27.69-31.1a2,2,0,0,1,3,2.66l-28.95,32.5A2,2,0,0,1,580.87,316.51Z" fill="#fff"/>
  <rect x="442.91" y="110.99" width="57.29" height="70.98" rx="28.65" fill="#dd9262"/>
  <path d="M471.56,182.46a29.18,29.18,0,0,1-29.15-29.14V139.63a29.15,29.15,0,0,1,58.3,0v13.69A29.18,29.18,0,0,1,471.56,182.46Zm0-71a28.18,28.18,0,0,0-28.15,28.14v13.69a28.15,28.15,0,0,0,56.3,0V139.63A28.18,28.18,0,0,0,471.56,111.49Z" fill="#2f2e41" data-secondary="true"/>
  <path d="M482.25,107.57c-43.55-5.59-39.34,32.06-39.34,32.06,4.28-14.11,20.53-23.51,20.53-23.51s6.84,21.54,36.77,27v10.18l10.3-5.57S515.6,111.84,482.25,107.57Z" fill="#2f2e41" data-secondary="true"/>
  <ellipse cx="506.06" cy="154.66" rx="8.63" ry="6.84" transform="matrix(0.15, -0.99, 0.99, 0.15, 278.29, 632.3)" fill="#dd9262"/>
  <path d="M505.6,163.76a6.8,6.8,0,0,1-.89-.07c-4-.6-6.66-5.13-5.91-10.11a10.29,10.29,0,0,1,3-6,6.4,6.4,0,0,1,10.35,1.55,10.78,10.78,0,0,1-1.9,12.68A6.87,6.87,0,0,1,505.6,163.76Zm.92-17.19a5.85,5.85,0,0,0-4,1.71,9.3,9.3,0,0,0-2.73,5.45c-.67,4.43,1.61,8.45,5.07,9a5.73,5.73,0,0,0,4.74-1.65,9.79,9.79,0,0,0,1.71-11.45,5.67,5.67,0,0,0-4.05-3A4.71,4.71,0,0,0,506.52,146.57Z" fill="#2f2e41" data-secondary="true"/>
  <path d="M468.86,181.83v9.7s13.53.69,17.31-13A35,35,0,0,1,468.86,181.83Z" fill="#2f2e41" data-secondary="true"/>
  <polygon points="449.33 31.56 452.91 38.81 460.91 39.98 455.12 45.62 456.49 53.59 449.33 49.83 442.17 53.59 443.54 45.62 437.75 39.98 445.75 38.81 449.33 31.56" fill="#fff"/>
  <path d="M457.15,54.51l-7.82-4.12-7.82,4.12L443,45.8l-6.33-6.17,8.75-1.27,3.91-7.93,3.91,7.93L462,39.63l-6.33,6.17ZM438.82,40.33l5.25,5.12-1.24,7.23,6.5-3.42,6.49,3.42-1.24-7.23,5.26-5.12-7.26-1.06-3.25-6.58-3.25,6.58Z" fill="#2f2e41" data-secondary="true"/>
  <polygon points="481.82 31.56 485.4 38.81 493.41 39.98 487.61 45.62 488.98 53.59 481.82 49.83 474.67 53.59 476.03 45.62 470.24 39.98 478.24 38.81 481.82 31.56" fill="#fff"/>
  <path d="M489.65,54.51l-7.83-4.12L474,54.51l1.5-8.71-6.33-6.17,8.74-1.27,3.91-7.93,3.91,7.93,8.75,1.27-6.33,6.17Zm-7.83-5.25,6.5,3.42-1.24-7.23,5.25-5.12-7.26-1.06-3.25-6.58-3.24,6.58-7.26,1.06,5.25,5.12-1.24,7.23Z" fill="#2f2e41" data-secondary="true"/>
  <polygon points="512.61 31.56 516.19 38.81 524.19 39.98 518.4 45.62 519.77 53.59 512.61 49.83 505.45 53.59 506.82 45.62 501.03 39.98 509.03 38.81 512.61 31.56" fill="#fff"/>
  <path d="M520.43,54.51l-7.82-4.12-7.82,4.12,1.49-8.71L500,39.63l8.75-1.27,3.91-7.93,3.91,7.93,8.74,1.27-6.32,6.17Zm-7.82-5.25,6.49,3.42-1.24-7.23,5.26-5.12-7.26-1.06-3.25-6.58-3.25,6.58-7.26,1.06,5.25,5.12-1.24,7.23Z" fill="#2f2e41" data-secondary="true"/>
  <polygon points="546.81 31.56 550.39 38.81 558.39 39.98 552.6 45.62 553.97 53.59 546.81 49.83 539.65 53.59 541.02 45.62 535.23 39.98 543.23 38.81 546.81 31.56" fill="#fff"/>
  <path d="M554.64,54.51l-7.83-4.12L539,54.51l1.5-8.71-6.33-6.17,8.74-1.27,3.91-7.93,3.91,7.93,8.75,1.27-6.33,6.17Zm-7.83-5.25,6.5,3.42-1.24-7.23,5.25-5.12-7.26-1.06-3.25-6.58-3.24,6.58-7.26,1.06,5.25,5.12-1.24,7.23Z" fill="#2f2e41" data-secondary="true"/>
  <polygon points="418.54 31.56 422.12 38.81 430.13 39.98 424.33 45.62 425.7 53.59 418.54 49.83 411.39 53.59 412.75 45.62 406.96 39.98 414.96 38.81 418.54 31.56" fill="#fff"/>
  <path d="M426.37,54.51l-7.83-4.12-7.82,4.12,1.5-8.71-6.33-6.17,8.74-1.27,3.91-7.93,3.91,7.93,8.75,1.27-6.33,6.17Zm-7.83-5.25,6.5,3.42-1.24-7.23,5.25-5.12-7.26-1.06-3.25-6.58-3.24,6.58L408,40.33l5.25,5.12-1.24,7.23Z" fill="#2f2e41" data-secondary="true"/>
  <path d="M379.64,222.15l11.75-5.63,31,70a4.3,4.3,0,0,1-2,5.58h0a4.29,4.29,0,0,1-5.76-1.87Z" fill="#2f2e41" data-secondary="true"/>
  <path d="M152.17,333.32s-13.68,11.12-6.69,74.22l8.4,95.95L94,555.65l30.79,47.89L206,537.7s15.4-8.55,10.27-41.9L206,404.3h5.13L295,613l56.44-24.8L258.5,353.84l3.38-27.36-107.14-6.14Z" fill="#2f2e41" data-secondary="true"/>
  <path d="M162.43,509.12a.39.39,0,0,1-.15,0,.51.51,0,0,1-.33-.63c.05-.13,4.19-13.93,0-46.35-.46-3.94-11-96.48,0-119.52a.51.51,0,0,1,.67-.24.5.5,0,0,1,.23.67c-10.93,22.78-.06,118,.05,119,4.24,32.68,0,46.64,0,46.77A.49.49,0,0,1,162.43,509.12Z" fill="#fff"/>
  <path d="M182.91,345.92h-.08l-34.69-5.26a.5.5,0,0,1,.15-1L183,344.93a.5.5,0,0,1,.42.57A.49.49,0,0,1,182.91,345.92Z" fill="#fff"/>
  <path d="M199.75,209.83l-34.42,4.63a20.16,20.16,0,0,0-14.2,8.86c-5.8,8.84-10.47,25.75,3.61,54.42v32.7a8.94,8.94,0,0,1-3.7,7.19c-4.27,3.16-9.45,9.22,1.13,15.69l28.22,2.57s1.71,21.37,21.38,26.51c0,0,13.62,3.79,32-6.66l70.58-29.26,6-62.42S289.85,237.55,253.93,223Z" fill="#50C878" data-primary="true"/>
  <path d="M208.31,363.54a28.82,28.82,0,0,1-6.68-.66c-18.23-4.76-21.31-23.48-21.69-26.53L152,333.81l-.1-.06c-4.16-2.55-6.34-5.3-6.47-8.19-.15-3.53,2.8-6.48,5.3-8.33a8.5,8.5,0,0,0,3.5-6.79V277.85c-14-28.46-9.62-45.51-3.53-54.8A20.59,20.59,0,0,1,165.27,214l34.5-4.65.1,0,54.18,13.17c35.7,14.45,56.51,41,56.72,41.23l.12.16,0,.19-6,62.73-.27.11L234,356.21C223.31,362.27,214.13,363.54,208.31,363.54Zm-56-30.71,28.53,2.6,0,.42c0,.21,1.92,21.08,21,26.06.15,0,13.67,3.61,31.67-6.6l70.35-29.18,5.94-61.92c-1.75-2.19-22.15-27-56.11-40.74l-54-13.13L165.4,215a19.67,19.67,0,0,0-13.86,8.64c-5.95,9.08-10.15,25.81,3.65,53.92l.05.1v32.82a9.54,9.54,0,0,1-3.9,7.6c-2.31,1.7-5,4.39-4.9,7.48C146.55,328,148.53,330.49,152.33,332.83Z" fill="#2f2e41" data-secondary="true"/>
  <rect x="207.16" y="311.02" width="15.72" height="1" transform="translate(-102.5 105.47) rotate(-22.4)" fill="#2f2e41" data-secondary="true"/>
  <rect x="167.06" y="275.03" width="1" height="63.56" transform="translate(-109.59 93.74) rotate(-23.81)" fill="#2f2e41" data-secondary="true"/>
  <path d="M222.29,230.59l6.84,8.67s-3.73,38.95-12.55,53.68l5.71,15.58L235,304s10.33-40.67-1.19-63.4l7.7-7.66-8.09-7.38Z" fill="#fff"/>
  <path d="M371.08,250.71l-7.8,6.41-25.55,83s18.82-3.42,37.63-27.36l28.22-33.35Z" fill="#50C878" data-primary="true"/>
  <path d="M337,340.8l25.84-84,8.25-6.77,33.18,29.34-.32.37-28.22,33.35c-18.7,23.8-37.73,27.5-37.92,27.53Zm26.71-83.38-25.25,82.06c3.81-1,20.24-6.3,36.5-27l27.91-33-31.81-28.13Z" fill="#2f2e41" data-secondary="true"/>
  <path d="M397.61,246.1s-10-5.68-4.6-11.39c0,0,17.41-20.25,20.83-1.44a6.82,6.82,0,0,1,4.28,7.7,10.7,10.7,0,0,1,2.37,10s2.44,1,2.22,4.73a9.55,9.55,0,0,1-5.08,7.72c-5,2.74-14,6.49-11.49-3.18,0,0-5.13-1.3-4.27-7.29A7.38,7.38,0,0,1,397.61,246.1Z" fill="#dd9262"/>
  <path d="M408.89,267a3.85,3.85,0,0,1-2.43-.71c-1.25-1-1.56-2.9-.91-5.71a6.62,6.62,0,0,1-4.22-7.32,7.94,7.94,0,0,1-4.22-6.84c-1.12-.69-5.61-3.63-6.16-7.34a5.44,5.44,0,0,1,1.7-4.69c.38-.44,9.69-11.18,16.27-9.39,2.68.73,4.49,3.4,5.36,7.94a7.29,7.29,0,0,1,4.36,7.88,11.16,11.16,0,0,1,2.42,9.91c.75.48,2.33,1.88,2.14,5a10.08,10.08,0,0,1-5.33,8.13C415,265.41,411.5,267,408.89,267Zm-1.54-41.21c-5.91,0-13.88,9.17-14,9.27a4.53,4.53,0,0,0-1.45,3.87c.54,3.68,5.86,6.73,5.91,6.76l.26.15v.29a6.92,6.92,0,0,0,3.95,6.38l.36.14-.06.39c-.78,5.45,3.72,6.68,3.91,6.73l.48.13-.12.48c-.68,2.64-.53,4.36.45,5.13,1.5,1.16,5.25.25,10.32-2.51a9.12,9.12,0,0,0,4.81-7.31c.19-3.27-1.84-4.21-1.92-4.24l-.38-.17.09-.41a10.23,10.23,0,0,0-2.23-9.51l-.19-.18,0-.25a6.26,6.26,0,0,0-3.94-7.15l-.28-.1,0-.29c-.78-4.3-2.36-6.79-4.69-7.43A5.17,5.17,0,0,0,407.35,225.76Z" fill="#2f2e41" data-secondary="true"/>
  <rect x="395.38" y="239.18" width="20.69" height="1" transform="translate(-61.28 302.7) rotate(-38.26)" fill="#2f2e41" data-secondary="true"/>
  <rect x="399.9" y="246.45" width="20.18" height="1" transform="translate(-66.54 291.66) rotate(-36.42)" fill="#2f2e41" data-secondary="true"/>
  <rect x="404.78" y="255.09" width="17.08" height="1" transform="translate(-72.55 265.35) rotate(-32.88)" fill="#2f2e41" data-secondary="true"/>
  <polygon points="371.94 214.46 379.63 222.15 391.39 216.52 389.9 206.76 371.94 214.46" fill="#50C878" data-primary="true"/>
  <path d="M366.81,139.21a39.34,39.34,0,1,0,39.33,39.33A39.33,39.33,0,0,0,366.81,139.21Zm0,72.68a33.35,33.35,0,1,1,33.35-33.35A33.35,33.35,0,0,1,366.81,211.89Z" fill="#2f2e41" data-secondary="true"/>
  <g opacity="0.51">
    <circle cx="366.81" cy="178.54" r="33.35" fill="#fff"/>
  </g>
  <rect x="94.74" y="547.56" width="16.94" height="71.42" rx="8.47" transform="translate(-297.03 146.62) rotate(-32.47)" fill="#2f2e41" data-secondary="true"/>
  <rect x="317.08" y="571.5" width="16.94" height="71.42" rx="8.47" transform="translate(755.67 68.99) rotate(66.83)" fill="#2f2e41" data-secondary="true"/>
  <path d="M108.62,654.12c-1.64,1.7-4.16.88-6.39-.48a18.85,18.85,0,0,1-6.39-6.71L59.42,583.28l6.17-3.88,17.94-11.27,25.88,40.54L106,613l4.23,30.78C110.74,649.63,110,652.73,108.62,654.12Z" fill="#50C878" data-primary="true"/>
  <path d="M106.3,655.57a8.52,8.52,0,0,1-4.33-1.51,19.36,19.36,0,0,1-6.56-6.88L58.74,583.11l24.94-15.67.27.42L110,608.7l-3.47,4.39,4.2,30.58c.45,5.58-.13,9.11-1.78,10.8A3.6,3.6,0,0,1,106.3,655.57ZM60.09,583.44l36.19,63.24a18.31,18.31,0,0,0,6.21,6.53c2.64,1.61,4.58,1.8,5.77.57h0c1.42-1.45,1.92-4.81,1.51-10l-4.26-31,3.29-4.17L83.37,568.82Z" fill="#2f2e41" data-secondary="true"/>
  <path d="M108.62,654.12c-1.64,1.7-4.16.88-6.39-.48a18.85,18.85,0,0,1-6.39-6.71L59.42,583.28l6.17-3.88Z" fill="#2f2e41" data-secondary="true"/>
  <path d="M306.5,624.59l15,35.39,70.12-44.47s-18-3.42-35.06,1.71l-5.13-11.86Z" fill="#50C878" data-primary="true"/>
  <path d="M321.26,660.72l-15.42-36.4,45.84-19.62,5.15,11.92c16.9-4.92,34.69-1.63,34.87-1.6l1.24.24Zm-14.11-35.87,14.57,34.39,68.51-43.44c-4.4-.65-19.36-2.35-33.54,1.9l-.43.13L351.16,606Z" fill="#2f2e41" data-secondary="true"/>
  <polygon points="321.49 659.98 324.05 665.11 394.17 619.79 391.61 615.51 321.49 659.98" fill="#2f2e41" data-secondary="true"/>
  <path d="M98.93,561.26a.52.52,0,0,1-.38-.17.51.51,0,0,1,.06-.71l55.8-47.67a.5.5,0,1,1,.65.76l-55.8,47.67A.52.52,0,0,1,98.93,561.26Z" fill="#fff"/>
  <path d="M225.71,404.8H211.17a.51.51,0,0,1-.5-.5.5.5,0,0,1,.5-.5h14.54a.5.5,0,0,1,.5.5A.5.5,0,0,1,225.71,404.8Z" fill="#fff"/>
  <path d="M302.62,605.86a.51.51,0,0,1-.46-.3L215,404.5a.5.5,0,0,1,.26-.66.49.49,0,0,1,.66.26l87.17,201.06a.51.51,0,0,1-.26.66A.45.45,0,0,1,302.62,605.86Z" fill="#fff"/>
  <path d="M274.21,290.52l-.79-.61c6.06-7.85,11-34.14,11-34.41l1,.18C285.21,256.77,280.42,282.48,274.21,290.52Z" fill="#2f2e41" data-secondary="true"/>
  <path d="M431.41,249.63c-.72-10-3.45-24.13-3.47-24.27l1-.19c0,.14,2.76,14.29,3.49,24.39Z" fill="#2f2e41" data-secondary="true"/>
  <polygon points="221.61 194.09 218.02 210.18 233.41 225.57 244.53 217.88 249.59 207.99 240.25 195.65 221.61 194.09" fill="#dd9262"/>
  <path d="M233.35,226.22l-15.88-15.88,3.75-16.78,19.29,1.61,9.67,12.76-5.27,10.29ZM218.56,210l14.91,14.91,10.67-7.39L249,208l-9-11.91-18-1.51Z" fill="#2f2e41" data-secondary="true"/>
  <path d="M231.53,203.55s3.59,10.91,13,14.33l5.07-9.89A28.4,28.4,0,0,1,231.53,203.55Z" fill="#2f2e41" data-secondary="true"/>
  <rect x="216.31" y="122.96" width="62.85" height="85.09" rx="31.43" fill="#dd9262"/>
  <path d="M247.73,208.54a32,32,0,0,1-31.92-31.92V154.39a31.93,31.93,0,1,1,63.85,0v22.23A32,32,0,0,1,247.73,208.54Zm0-85.08a31,31,0,0,0-30.92,30.93v22.23a30.93,30.93,0,0,0,61.85,0V154.39A31,31,0,0,0,247.73,123.46Z" fill="#2f2e41" data-secondary="true"/>
  <path d="M208.61,126.38s-14.54,18.81-1.71,35.92l13.52,1.12s14.05-4.27,14.37-18.52l12.94,10.43,1.93-5.86s9.4,10.26,22.23,7.69v-2.75s11.49,3.3,12.16,9a28.84,28.84,0,0,0-8.74-28.49l6.84.86S277,122.1,252.22,121.25c0,0,.86-3.42,6.84-5.13,0,0-17.31-6-27,6.84l-4.61-8.24-11.1,16.91Z" fill="#2f2e41" data-secondary="true"/>
  <ellipse cx="212.89" cy="172.98" rx="11.12" ry="14.96" transform="translate(-35.93 57.5) rotate(-14.2)" fill="#dd9262"/>
  <path d="M214.5,188.25c-5.54,0-11-5.11-12.88-12.42a18.3,18.3,0,0,1,.59-11.37,9.73,9.73,0,0,1,16-4.05,18.34,18.34,0,0,1,5.92,9.72h0a18.29,18.29,0,0,1-.59,11.37,10.34,10.34,0,0,1-6.88,6.48A9,9,0,0,1,214.5,188.25Zm-3.21-29.53a8,8,0,0,0-1.95.24,9.39,9.39,0,0,0-6.21,5.88,17.36,17.36,0,0,0-.54,10.75c2,7.73,8.16,12.85,13.84,11.42a9.38,9.38,0,0,0,6.21-5.89,17.33,17.33,0,0,0,.54-10.74h0a17.28,17.28,0,0,0-5.59-9.19A10,10,0,0,0,211.29,158.72Z" fill="#2f2e41" data-secondary="true"/>
  <polygon points="233.41 225.57 212.88 234.84 199.75 209.83 219.76 202.38 218.02 210.18 233.41 225.57" fill="#50C878" data-primary="true"/>
  <path d="M212.66,235.48,199,209.56l21.41-8L218.56,210l15.71,15.71ZM200.45,210.1l12.66,24.09,19.43-8.77-15.07-15.08,1.6-7.17Z" fill="#2f2e41" data-secondary="true"/>
  <path d="M233.41,225.57a68.45,68.45,0,0,1,12,12L253.93,223a35.37,35.37,0,0,0-1.71-5.13,36.32,36.32,0,0,0-4-7.17l-3.68,7.17Z" fill="#50C878" data-primary="true"/>
  <path d="M245.43,238.45l-.45-.6A68.32,68.32,0,0,0,233.11,226l-.56-.42,11.59-8,4-7.78.48.66a36.1,36.1,0,0,1,4.08,7.27,36.48,36.48,0,0,1,1.74,5.2l.05.2ZM234.25,225.6a70.08,70.08,0,0,1,11.08,11.05l8.07-13.72a36.54,36.54,0,0,0-1.64-4.86,35.46,35.46,0,0,0-3.5-6.39l-3.35,6.54Z" fill="#2f2e41" data-secondary="true"/>
  <polygon points="221.99 309.16 221.82 308.69 193.6 231.73 194.54 231.39 222.59 307.89 287.11 284.96 287.45 285.9 221.99 309.16" fill="#2f2e41" data-secondary="true"/>
  <path d="M315.5,246.1,295,276l-15.81,60.91s-1.3,8.35,3.84,14.34l59,2.56s-4.28-4.74-.86-16.48l29.93-78.43Z" fill="#fff"/>
  <path d="M343.16,354.39l-1.17-.05-59.22-2.57-.14-.17c-5.22-6.09-4-14.39-4-14.74l15.85-61,.05-.08,20.71-30.21.33.08,56.15,13-30.14,79c-3.27,11.24.72,15.93.76,16Zm-59.91-3.6L341,353.3c-1.09-1.88-3-6.88-.36-16.08l29.74-77.94-54.69-12.62-20.28,29.58-15.79,60.82S278.49,345.06,283.25,350.79Z" fill="#2f2e41" data-secondary="true"/>
  <path d="M299.93,270c-1.56,1.31-3.78,4,1.89,5.22,0,0,26.26,3,39.43-5.76a4,4,0,0,1,5.9,4.52,10,10,0,0,1-2.57,3.81s3.49,2.89.89,8.71c0,0,4.24,7.54-4.32,11,0,0,2.57,4.27-4.27,8.55l-32.5,20.52-17.1-41.05s4.59-16,12.31-16.35A.49.49,0,0,1,299.93,270Z" fill="#dd9262"/>
  <path d="M304.15,327.22l-17.4-41.76.05-.16c.19-.67,4.78-16.4,12.77-16.72a1,1,0,0,1,.68,1.76h0c-1.15,1-1.72,1.89-1.56,2.54s.79,1.26,3.24,1.8c.21,0,26.18,2.88,39-5.68a4.45,4.45,0,0,1,6.66,5.08,10.15,10.15,0,0,1-2.36,3.66c.87,1,2.78,3.93.75,8.69a9,9,0,0,1,.6,6.57,8.18,8.18,0,0,1-4.81,4.67c.48,1.35,1.11,5.1-4.67,8.71Zm-16.34-41.81,16.81,40.33,32-20.21c6.31-3.94,4.21-7.71,4.11-7.87l-.29-.5.54-.22c2.47-1,4.06-2.42,4.71-4.26a8.19,8.19,0,0,0-.65-6l-.12-.21.1-.23c2.42-5.42-.72-8.1-.75-8.13l-.43-.35.39-.39a9.59,9.59,0,0,0,2.46-3.61,3.38,3.38,0,0,0-1.21-3.79,3.35,3.35,0,0,0-4-.15c-13.16,8.76-38.68,6-39.76,5.84-2.45-.54-3.76-1.37-4-2.55s.39-2.29,1.89-3.55l.32.38-.32-.38.32.38-.32-.38C292.74,269.85,288.32,283.72,287.81,285.41Z" fill="#2f2e41" data-secondary="true"/>
  <path d="M323.31,285.07l-.22-1c.15,0,15.39-3.44,21.24-6.79l.49.87C338.84,281.59,323.94,284.93,323.31,285.07Z" fill="#2f2e41" data-secondary="true"/>
  <path d="M325.9,294.46l-.28-.95c.16-.05,16.27-4.82,19.54-7.45l.62.78C342.36,289.6,326.57,294.27,325.9,294.46Z" fill="#2f2e41" data-secondary="true"/>
  <rect x="324.99" y="300.45" width="16.95" height="1" transform="translate(-95.28 166.97) rotate(-24.71)" fill="#2f2e41" data-secondary="true"/>
  <polyline points="253.93 347.4 304.38 326.48 287.28 285.43 253.58 297.41" fill="#50C878" data-primary="true"/>
  <polygon points="254.12 347.86 253.74 346.94 303.73 326.21 287 286.06 253.75 297.88 253.42 296.94 287.56 284.8 305.04 326.75 304.57 326.94 254.12 347.86" fill="#2f2e41" data-secondary="true"/>
  <path d="M386.48,235l18.81,37.63a19.78,19.78,0,0,1-5.57,3.42l-28.64-25.32s0-14,4.79-20.7a7.07,7.07,0,0,1,5.29-2.89L399,225.89a4.28,4.28,0,0,1,4.57,4.27h0a4.27,4.27,0,0,1-4.1,4.27Z" fill="#dd9262"/>
  <path d="M399.63,276.62l-29.05-25.68v-.23c0-.57.06-14.19,4.89-21a7.49,7.49,0,0,1,5.65-3.1L399,225.39a4.79,4.79,0,0,1,3.59,1.28,4.77,4.77,0,0,1-3.06,8.26l-12.23.52,18.63,37.26-.26.25a19.84,19.84,0,0,1-5.72,3.53Zm-28-26.13,28.22,25a21.23,21.23,0,0,0,4.86-3l-19-38,13.78-.58a3.77,3.77,0,0,0,2.42-6.53,3.67,3.67,0,0,0-2.84-1l-17.85,1.23a6.53,6.53,0,0,0-4.91,2.68C372,236.38,371.61,248.68,371.59,250.49Z" fill="#2f2e41" data-secondary="true"/>
  <path d="M699,501.38s-1.61-36.86,2.43-55.09a18.51,18.51,0,0,1,4.23-8.27c8.25-9.29,33.87-37.58,55.63-55.83,0,0-20.39-4.25-39.64,7.36V402l-4.25-9.91S693.61,406.25,695.87,445L697,482.41Z" fill="#f2f2f2"/>
  <path d="M698.49,501.43l-2-19-1.14-37.4c-2.25-38.63,21.53-53.25,21.77-53.39l.49-.29,3.51,8.19v-10.3l.24-.15c19.2-11.58,39.79-7.47,40-7.42l1,.21-.79.66C739.69,401,713.52,429.91,706,438.35a18.06,18.06,0,0,0-4.12,8c-4,18-2.44,54.59-2.42,55Zm18.68-108.59c-3.34,2.29-22.84,17.23-20.8,52.17l1.14,37.39.69,6.65c-.12-12.44.19-31.41,2.74-42.87a19.06,19.06,0,0,1,4.34-8.5c7.41-8.34,33.06-36.73,54.85-55.18-4.37-.64-21.66-2.39-38,7.33v14.61Z" fill="#2f2e41" data-secondary="true"/>
  <path d="M694.59,507.46v-3.35a16.17,16.17,0,0,0-4.83-11.74l-56-55s26.92-3.4,39.73,7.32l.26,14.64,4.45-11.5s24,10.19,22,59.6Z" fill="#f2f2f2"/>
  <path d="M694.08,508l0-3.87a15.71,15.71,0,0,0-4.68-11.37L632.69,437l1-.12c1.11-.14,27.29-3.31,40.12,7.43l.18.14.22,12.32,3.71-9.6.47.2c.25.1,24.35,10.9,22.27,60.08l0,.48Zm-59.2-70.24L690.12,492a16.75,16.75,0,0,1,5,12.1V507l4.61,0c1.73-44.23-17.91-56.65-21.21-58.42l-5.17,13.38-.3-17C661.88,435.79,639.92,437.25,634.88,437.73Z" fill="#2f2e41" data-secondary="true"/>
  <path d="M707.76,507.36l3.07-25a8.46,8.46,0,0,1,2.22-4.76c8-8.59,39.7-42.19,58.14-57.43,0,0-21.24-2-40.21,7.64l-.56,13.31-4.25-10.2S705.5,442.49,704.93,483l0,24.4Z" fill="#f2f2f2"/>
  <path d="M704.45,507.88l0-24.9c.57-40.32,21.28-52.41,21.49-52.53l.49-.28,3.6,8.64.48-11.35.26-.14c18.89-9.58,40.27-7.71,40.48-7.69l1.21.11-.94.77c-18.22,15.07-49.06,47.73-58.08,57.39a7.9,7.9,0,0,0-2.1,4.48l-3.11,25.48Zm21.49-76.25c-3.09,2.07-20,15.11-20.51,51.36l0,23.89h1.87l3-24.61a9,9,0,0,1,2.36-5.05c8.87-9.49,38.84-41.24,57.21-56.66-4.77-.24-22.47-.46-38.43,7.53l-.65,15.27Z" fill="#2f2e41" data-secondary="true"/>
  <polygon points="666.86 565.79 702.54 574.23 738.34 565.79 738.34 562.29 667.03 562.29 666.86 565.79" fill="#2f2e41" data-secondary="true"/>
  <path d="M739.34,532.1a37,37,0,0,1-30.42,36.37h0a36.95,36.95,0,0,1-34.17-60.88l40-.28,14.92-.11A36.81,36.81,0,0,1,739.34,532.1Z" fill="#50C878" data-primary="true"/>
  <path d="M702.38,569.54a37.45,37.45,0,0,1-28-62.29l.15-.16h.22l55.17-.39.15.16A37.45,37.45,0,0,1,709,569,37.82,37.82,0,0,1,702.38,569.54ZM675,508.08a36.45,36.45,0,0,0,27.42,60.46,37.62,37.62,0,0,0,6.45-.56,36.46,36.46,0,0,0,20.63-60.28Z" fill="#2f2e41" data-secondary="true"/>
  <rect x="662.95" y="548.61" width="7.86" height="116.5" rx="2.47" fill="#2f2e41" data-secondary="true"/>
  <rect x="698.17" y="548.61" width="7.86" height="116.5" rx="2.47" fill="#2f2e41" data-secondary="true"/>
  <rect x="733.98" y="548.61" width="7.86" height="116.5" rx="2.47" fill="#2f2e41" data-secondary="true"/>
  <g opacity="0.2">
    <path d="M739.34,532.1a37,37,0,0,1-30.42,36.37c25.24-24.39,7-59,5.84-61.16l14.92-.11A36.81,36.81,0,0,1,739.34,532.1Z"/>
  </g>
</svg>